<svg version="1.1" id="Layer_1" xmlns:x="ns_extend;" xmlns:i="ns_ai;" xmlns:graph="ns_graphs;" xmlns="http://www.w3.org/2000/svg" xmlns:xlink="http://www.w3.org/1999/xlink" x="0px" y="0px" viewBox="0 0 219.4 52.5" style="enable-background:new 0 0 219.4 52.5;" xml:space="preserve">
 <style type="text/css">
  .st0{fill:#67B1E2;}
	.st1{fill:#4F5050;}
	.st2{fill:#0C4C91;}
 </style>
 <metadata>
  <sfw xmlns="ns_sfw;">
   <slices>
   </slices>
   <sliceSourceBounds bottomLeftOrigin="true" height="52.5" width="219.4" x="90.3" y="-226.2">
   </sliceSourceBounds>
  </sfw>
 </metadata>
 <g>
  <polygon class="st0" points="73.1,24.9 87.1,40.7 86.7,10.2 	">
  </polygon>
  <path class="st1" d="M105.8,6.4l2.7,7.5h-5.5L105.8,6.4z M101.6,18.2h8.4l1.7,4.3h5.8l-9-21.9h-5.1l-9.1,21.9h5.7L101.6,18.2z">
  </path>
  <path class="st1" d="M133.6,14.5c-0.4,0.8-0.9,1.5-1.6,2c-0.7,0.5-1.4,0.9-2.3,1.1c-0.9,0.2-1.8,0.3-2.7,0.3h-2.5V5.1h2.6
		c0.9,0,1.8,0.1,2.6,0.3c0.9,0.2,1.6,0.6,2.3,1c0.7,0.5,1.2,1.1,1.6,2s0.6,1.8,0.6,3.1C134.2,12.7,134,13.7,133.6,14.5 M138.6,16.4
		c0.7-1.4,1.1-3.1,1.1-5c0-2.1-0.4-3.8-1.1-5.2c-0.7-1.4-1.7-2.5-2.8-3.4s-2.5-1.4-4-1.8c-1.5-0.4-3-0.5-4.6-0.5h-7.9v21.9h8.1
		c1.5,0,3-0.2,4.4-0.6c1.5-0.4,2.8-1.1,3.9-2C137,19,137.9,17.8,138.6,16.4">
  </path>
  <path class="st1" d="M151.3,6.4l2.7,7.5h-5.5L151.3,6.4z M147.1,18.2h8.4l1.7,4.3h5.8l-9-21.9h-5.1l-9.1,21.9h5.7L147.1,18.2z">
  </path>
  <polygon class="st1" points="169.7,7 169.8,7 175.3,22.5 179,22.5 184.6,7 184.7,7 184.6,22.5 189.8,22.5 189.8,0.6 182.2,0.6 
		177.4,14.6 177.3,14.6 172.3,0.6 164.8,0.6 164.8,22.5 169.8,22.5 	">
  </polygon>
  <path class="st1" d="M202.7,18.2c-0.3,0.2-0.6,0.3-1,0.4c-0.4,0.1-0.7,0.1-1.1,0.1c-0.9,0-1.7-0.2-2.6-0.7c-0.9-0.4-1.6-1-2.1-1.7
		l-3.4,3.5c1,1,2.2,1.8,3.6,2.3c1.5,0.5,3,0.8,4.5,0.8c1.1,0,2.1-0.1,3.1-0.4c1-0.3,1.9-0.7,2.7-1.3c0.8-0.6,1.4-1.4,1.9-2.3
		c0.5-0.9,0.7-2,0.7-3.3c0-1.1-0.2-2-0.6-2.7c-0.4-0.7-1-1.3-1.6-1.8c-0.7-0.5-1.4-0.9-2.2-1.2c-0.8-0.3-1.6-0.6-2.3-0.8
		c-0.5-0.2-1-0.3-1.4-0.5c-0.4-0.2-0.8-0.3-1.1-0.5c-0.3-0.2-0.5-0.4-0.7-0.7s-0.2-0.6-0.2-0.9c0-0.4,0.1-0.8,0.3-1.1
		c0.2-0.3,0.4-0.5,0.7-0.7c0.3-0.2,0.6-0.3,1-0.4c0.4-0.1,0.7-0.1,1.1-0.1c0.7,0,1.4,0.2,2.1,0.5c0.7,0.3,1.3,0.8,1.8,1.4l3.4-3.6
		c-1-0.9-2.1-1.6-3.4-2c-1.3-0.5-2.5-0.7-3.8-0.7c-1,0-2,0.1-3,0.4c-1,0.3-1.9,0.7-2.7,1.2c-0.8,0.6-1.4,1.3-1.9,2.1
		c-0.5,0.9-0.7,1.9-0.7,3.1c0,1,0.2,1.8,0.5,2.5c0.3,0.7,0.7,1.3,1.3,1.8c0.5,0.5,1.1,0.9,1.8,1.2c0.7,0.3,1.3,0.6,2,0.8
		c0.7,0.2,1.4,0.4,1.9,0.6c0.6,0.2,1,0.4,1.4,0.7c0.4,0.2,0.7,0.5,0.9,0.8c0.2,0.3,0.3,0.6,0.3,1.1c0,0.4-0.1,0.8-0.2,1.1
		S203,18,202.7,18.2">
  </path>
  <polygon class="st1" points="113.9,30 107.3,30 99.5,38.9 99.5,38.9 99.5,30 94.3,30 94.3,51.9 99.5,51.9 99.5,41.8 99.5,41.8 
		107.6,51.9 114.5,51.9 104.5,40.1 	">
  </polygon>
  <polygon class="st1" points="121.3,42.8 130.3,42.8 130.3,38.6 121.3,38.6 121.3,34.4 130.8,34.4 130.8,30 116.2,30 116.2,51.9 
		131.4,51.9 131.4,47.4 121.3,47.4 	">
  </polygon>
  <polygon class="st1" points="139.9,42.8 149,42.8 149,38.6 139.9,38.6 139.9,34.4 149.5,34.4 149.5,30 134.9,30 134.9,51.9 
		150.1,51.9 150.1,47.4 139.9,47.4 	">
  </polygon>
  <path class="st1" d="M163.9,43.2h4.2v4c-0.5,0.2-1,0.4-1.5,0.4c-0.6,0.1-1.1,0.1-1.8,0.1c-1.1,0-2-0.2-2.8-0.5
		c-0.8-0.3-1.5-0.8-2.1-1.4c-0.6-0.6-1-1.3-1.3-2.2c-0.3-0.8-0.4-1.8-0.4-2.8c0-1,0.2-1.9,0.5-2.7c0.3-0.8,0.8-1.6,1.3-2.2
		c0.6-0.6,1.3-1.1,2-1.4c0.8-0.3,1.6-0.5,2.6-0.5c1.1,0,2,0.2,2.9,0.6c0.8,0.4,1.5,0.9,2,1.5l3.3-3.8c-0.9-0.9-2.1-1.6-3.6-2.1
		s-3.1-0.8-4.8-0.8c-1.7,0-3.2,0.3-4.6,0.8c-1.4,0.5-2.7,1.3-3.8,2.3c-1.1,1-1.9,2.2-2.5,3.6c-0.6,1.4-0.9,3-0.9,4.8
		c0,1.7,0.3,3.3,0.9,4.7c0.6,1.4,1.4,2.6,2.5,3.6c1.1,1,2.3,1.8,3.8,2.4c1.5,0.6,3.1,0.8,4.8,0.8c1.7,0,3.2-0.2,4.7-0.5
		c1.4-0.4,2.7-0.8,3.7-1.4V39h-9V43.2z">
  </path>
  <path class="st1" d="M183.3,43.4l2.8-7.5l2.7,7.5H183.3z M183.7,30l-9.1,21.9h5.7l1.6-4.3h8.4l1.7,4.3h5.8l-9-21.9H183.7z">
  </path>
  <polygon class="st1" points="214.3,30 214.4,44.3 214.4,44.3 205.6,30 199.6,30 199.6,51.9 204.7,51.9 204.6,37.6 204.7,37.6 
		213.5,51.9 219.4,51.9 219.4,30 	">
  </polygon>
  <polygon class="st2" points="62.4,24.4 85.1,0.5 70.4,0.5 50.6,21.8 50.6,0.5 42.4,0.5 38.4,0.5 27.9,0.5 0,51.9 14.6,51.9 
		38.4,7.9 38.4,19.7 35.5,19.7 30,30 38.4,30 38.4,51.9 50.6,51.9 50.6,27.5 71.3,51.9 87,51.9 	">
  </polygon>
 </g>
</svg>