<?xml version="1.0" encoding="UTF-8"?>
<!DOCTYPE svg PUBLIC "-//W3C//DTD SVG 1.1//EN" "http://www.w3.org/Graphics/SVG/1.1/DTD/svg11.dtd">
<svg xmlns="http://www.w3.org/2000/svg" version="1.1" width="206px" height="72px" style="shape-rendering:geometricPrecision; text-rendering:geometricPrecision; image-rendering:optimizeQuality; fill-rule:evenodd; clip-rule:evenodd" xmlns:xlink="http://www.w3.org/1999/xlink">
<g><path style="opacity:1" fill="#fbfdfc" d="M -0.5,-0.5 C 68.1667,-0.5 136.833,-0.5 205.5,-0.5C 205.5,23.5 205.5,47.5 205.5,71.5C 136.833,71.5 68.1667,71.5 -0.5,71.5C -0.5,47.5 -0.5,23.5 -0.5,-0.5 Z"/></g>
<g><path style="opacity:1" fill="#1b81c0" d="M 45.5,10.5 C 40.2965,8.74638 34.9631,8.24638 29.5,9C 25.4333,10.7419 21.4333,12.5752 17.5,14.5C 21.7488,8.3751 27.7488,5.3751 35.5,5.5C 35.3398,3.80081 35.5065,2.13414 36,0.5C 40.0838,3.12578 44.2505,5.62578 48.5,8C 47.4293,8.85175 46.4293,9.68509 45.5,10.5 Z"/></g>
<g><path style="opacity:1" fill="#144273" d="M 122.5,24.5 C 121.532,26.6074 121.198,28.9407 121.5,31.5C 119.833,31.5 118.167,31.5 116.5,31.5C 116.5,24.8333 116.5,18.1667 116.5,11.5C 119.85,11.335 123.183,11.5017 126.5,12C 131.115,13.077 132.615,15.9103 131,20.5C 127.876,21.9868 127.876,23.6534 131,25.5C 131.311,27.556 131.811,29.556 132.5,31.5C 130.604,32.4656 128.604,32.7989 126.5,32.5C 126.162,30.146 125.662,27.8127 125,25.5C 124.329,24.7476 123.496,24.4142 122.5,24.5 Z"/></g>
<g><path style="opacity:1" fill="#cbdde8" d="M 121.5,15.5 C 125.676,14.8307 127.009,16.3307 125.5,20C 124.207,20.49 122.873,20.6567 121.5,20.5C 121.5,18.8333 121.5,17.1667 121.5,15.5 Z"/></g>
<g><path style="opacity:1" fill="#124376" d="M 87.5,11.5 C 90.8333,11.5 94.1667,11.5 97.5,11.5C 97.67,12.8221 97.3366,13.9887 96.5,15C 90.9284,14.0525 87.595,16.2192 86.5,21.5C 87.566,26.9356 90.8993,28.9356 96.5,27.5C 96.5,29.1667 96.5,30.8333 96.5,32.5C 84.957,33.7925 80.1236,28.7925 82,17.5C 83.3597,14.9774 85.193,12.9774 87.5,11.5 Z"/></g>
<g><path style="opacity:1" fill="#0c4073" d="M 147.5,14.5 C 148.221,17.8175 148.388,21.1508 148,24.5C 145.519,26.3137 142.685,26.9804 139.5,26.5C 139.5,27.5 139.5,28.5 139.5,29.5C 139.5,30.1667 139.5,30.8333 139.5,31.5C 137.219,31.9227 135.552,31.256 134.5,29.5C 136.29,23.8908 137.957,18.2242 139.5,12.5C 142.086,11.52 144.753,11.1866 147.5,11.5C 147.5,12.5 147.5,13.5 147.5,14.5 Z"/></g>
<g><path style="opacity:1" fill="#d5e2ed" d="M 142.5,16.5 C 143.924,18.5145 144.59,20.8478 144.5,23.5C 143.5,23.5 142.5,23.5 141.5,23.5C 141.674,21.139 142.007,18.8056 142.5,16.5 Z"/></g>
<g><path style="opacity:1" fill="#2e4f77" d="M 147.5,14.5 C 149.947,20.1893 151.614,26.1893 152.5,32.5C 150.5,32.5 148.5,32.5 146.5,32.5C 146.5,30.8333 146.5,29.1667 146.5,27.5C 143.789,27.1849 141.456,27.8516 139.5,29.5C 139.5,28.5 139.5,27.5 139.5,26.5C 142.685,26.9804 145.519,26.3137 148,24.5C 148.388,21.1508 148.221,17.8175 147.5,14.5 Z"/></g>
<g><path style="opacity:1" fill="#1a4677" d="M 105.5,11.5 C 108.5,11.5 111.5,11.5 114.5,11.5C 114.67,12.8221 114.337,13.9887 113.5,15C 105.945,14.6916 103.112,18.1916 105,25.5C 107.574,27.0019 110.407,28.0019 113.5,28.5C 114.711,29.7202 114.711,30.8869 113.5,32C 102,33.8333 97.1667,29 99,17.5C 100.494,14.6865 102.66,12.6865 105.5,11.5 Z"/></g>
<g><path style="opacity:1" fill="#2285c1" d="M 56.5,17.5 C 62.1384,22.1101 65.1384,28.1101 65.5,35.5C 66.9778,35.238 68.3112,35.5713 69.5,36.5C 67.538,40.723 65.2046,44.723 62.5,48.5C 61.7124,47.2299 60.7124,46.2299 59.5,45.5C 61.398,39.6639 61.898,33.6639 61,27.5C 59.2138,24.2635 57.7138,20.9302 56.5,17.5 Z"/></g>
<g><path style="opacity:1" fill="#829fae" d="M 122.5,24.5 C 122.5,27.1667 122.5,29.8333 122.5,32.5C 120.265,32.7947 118.265,32.4614 116.5,31.5C 118.167,31.5 119.833,31.5 121.5,31.5C 121.198,28.9407 121.532,26.6074 122.5,24.5 Z"/></g>
<g><path style="opacity:1" fill="#7e95a0" d="M 134.5,29.5 C 135.552,31.256 137.219,31.9227 139.5,31.5C 137.735,32.4614 135.735,32.7947 133.5,32.5C 133.263,31.209 133.596,30.209 134.5,29.5 Z"/></g>
<g><path style="opacity:1" fill="#5189a8" d="M 95.5,41.5 C 95.5,41.1667 95.5,40.8333 95.5,40.5C 98.2518,40.422 100.918,40.2554 103.5,40C 104.591,42.0639 104.758,44.2305 104,46.5C 103.506,44.8659 103.34,43.1992 103.5,41.5C 102.5,41.5 101.5,41.5 100.5,41.5C 100.462,48.0414 99.7955,48.0414 98.5,41.5C 96.9071,48.0486 95.9071,48.0486 95.5,41.5 Z"/></g>
<g><path style="opacity:1" fill="#5e97b2" d="M 156.5,41.5 C 156.5,43.1667 156.5,44.8333 156.5,46.5C 153.15,46.665 149.817,46.4983 146.5,46C 145.418,44.6703 144.751,43.1703 144.5,41.5C 145.572,37.6796 147.906,36.6796 151.5,38.5C 146.952,38.8575 145.618,41.0242 147.5,45C 148.167,45.1667 148.833,45.3333 149.5,45.5C 151.064,44.2308 152.731,43.0641 154.5,42C 152.355,41.2569 152.189,40.4235 154,39.5C 155.301,39.6387 156.134,40.3054 156.5,41.5 Z"/></g>
<g><path style="opacity:1" fill="#5d99b1" d="M 166.5,46.5 C 162.705,47.0415 160.705,45.3748 160.5,41.5C 159.03,47.9592 158.363,47.6258 158.5,40.5C 160.738,40.2351 163.071,40.0685 165.5,40C 168.038,42.3592 167.371,43.8592 163.5,44.5C 164.602,45.1757 165.602,45.8423 166.5,46.5 Z"/></g>
<g><path style="opacity:1" fill="#5e93aa" d="M 94.5,41.5 C 94.7993,46.2602 92.7993,47.5936 88.5,45.5C 88.4025,40.2115 90.4025,38.8781 94.5,41.5 Z"/></g>
<g><path style="opacity:1" fill="#ddfffe" d="M 90.5,41.5 C 91.5862,41.62 92.2528,42.2867 92.5,43.5C 92.1667,44.1667 91.8333,44.8333 91.5,45.5C 90.5713,44.3112 90.238,42.9778 90.5,41.5 Z"/></g>
<g><path style="opacity:1" fill="#2283be" d="M 10.5,24.5 C 7.3762,35.3292 9.04287,45.3292 15.5,54.5C 12.909,53.7457 11.0757,52.079 10,49.5C 7.2641,45.2205 5.7641,40.5539 5.5,35.5C 3.71199,35.7852 2.04533,35.4519 0.5,34.5C 3,30.1667 5.5,25.8333 8,21.5C 8.85175,22.5707 9.68509,23.5707 10.5,24.5 Z"/></g>
<g><path style="opacity:1" fill="#4d819c" d="M 88.5,45.5 C 87.0813,46.4511 85.4147,46.7845 83.5,46.5C 79.8959,40.9706 81.2292,38.1373 87.5,38C 83.8101,38.6904 82.6434,40.8571 84,44.5C 85.3561,45.3802 86.8561,45.7135 88.5,45.5 Z"/></g>
<g><path style="opacity:1" fill="#ebf9fa" d="M 117.5,40.5 C 114.012,40.7948 110.346,40.7948 106.5,40.5C 106.363,47.6258 107.03,47.9592 108.5,41.5C 109.833,48.1667 111.167,48.1667 112.5,41.5C 113.167,43.1667 113.833,44.8333 114.5,46.5C 116.655,46.162 118.989,46.162 121.5,46.5C 121.387,39.3381 120.387,39.0048 118.5,45.5C 117.893,45.3764 117.56,45.0431 117.5,44.5C 118.451,43.0813 118.784,41.4147 118.5,39.5C 120.833,39.5 123.167,39.5 125.5,39.5C 124.791,40.404 123.791,40.7373 122.5,40.5C 122.613,47.6619 123.613,47.9952 125.5,41.5C 126.167,43.1667 126.833,44.8333 127.5,46.5C 128.429,45.3112 128.762,43.9778 128.5,42.5C 129.163,40.9581 129.83,39.2914 130.5,37.5C 131.182,38.2427 131.849,38.9094 132.5,39.5C 130.685,41.4685 130.185,43.8018 131,46.5C 131.333,44.8333 131.667,43.1667 132,41.5C 132.098,43.6193 132.931,45.286 134.5,46.5C 134.762,43.9771 134.762,41.3104 134.5,38.5C 135.502,36.9891 136.169,35.3224 136.5,33.5C 137.5,33.5 138.5,33.5 139.5,33.5C 139.5,34.5 139.5,35.5 139.5,36.5C 140.675,36.281 141.675,36.6143 142.5,37.5C 142.994,39.0255 143.661,40.3588 144.5,41.5C 144.751,43.1703 145.418,44.6703 146.5,46C 149.817,46.4983 153.15,46.665 156.5,46.5C 156.5,44.8333 156.5,43.1667 156.5,41.5C 157.167,41.1667 157.833,40.8333 158.5,40.5C 158.363,47.6258 159.03,47.9592 160.5,41.5C 160.705,45.3748 162.705,47.0415 166.5,46.5C 160.681,47.3276 154.681,47.8276 148.5,48C 150.497,49.1932 152.164,50.6932 153.5,52.5C 152.527,54.9479 152.194,57.6146 152.5,60.5C 150.017,61.7696 147.35,62.4363 144.5,62.5C 137.998,62.0056 131.665,61.339 125.5,60.5C 125.351,59.448 125.517,58.448 126,57.5C 126.908,59.4386 128.408,60.4386 130.5,60.5C 130.657,59.1266 130.49,57.7932 130,56.5C 129.107,57.7112 128.274,57.7112 127.5,56.5C 130.407,52.6406 129.574,51.3072 125,52.5C 124.802,54.3817 124.302,56.0484 123.5,57.5C 122.883,57.6107 122.383,57.944 122,58.5C 121.79,56.9419 121.29,55.6085 120.5,54.5C 120.5,53.5 120.5,52.5 120.5,51.5C 119.5,51.5 118.5,51.5 117.5,51.5C 117.5,52.5 117.5,53.5 117.5,54.5C 115.5,54.5 113.5,54.5 111.5,54.5C 110.5,54.5 109.5,54.5 108.5,54.5C 108.338,56.5273 108.505,58.5273 109,60.5C 109.21,58.9419 109.71,57.6085 110.5,56.5C 110.5,58.1667 110.5,59.8333 110.5,61.5C 107.518,61.1044 104.851,61.7711 102.5,63.5C 98.389,63.7284 95.389,63.0618 93.5,61.5C 93.1193,60.0689 92.1193,59.2355 90.5,59C 92.4789,58.3164 94.1456,58.8164 95.5,60.5C 96.2304,58.6587 96.8971,56.8254 97.5,55C 96.1854,53.6054 96.5188,52.6054 98.5,52C 98,51.8333 97.5,51.6667 97,51.5C 95.2649,52.6819 94.2649,54.3485 94,56.5C 89.0971,53.5625 87.5971,54.8958 89.5,60.5C 88.2876,61.2299 87.2876,62.2299 86.5,63.5C 84.6183,62.9067 82.7849,62.2401 81,61.5C 80.7931,57.9106 80.2931,54.4106 79.5,51C 81.5,50.6667 83.5,50.3333 85.5,50C 84.1772,49.1841 83.5106,48.0174 83.5,46.5C 85.4147,46.7845 87.0813,46.4511 88.5,45.5C 92.7993,47.5936 94.7993,46.2602 94.5,41.5C 94.8333,41.5 95.1667,41.5 95.5,41.5C 95.9071,48.0486 96.9071,48.0486 98.5,41.5C 99.7955,48.0414 100.462,48.0414 100.5,41.5C 101.5,41.5 102.5,41.5 103.5,41.5C 103.34,43.1992 103.506,44.8659 104,46.5C 104.758,44.2305 104.591,42.0639 103.5,40C 100.918,40.2554 98.2518,40.422 95.5,40.5C 97.7171,38.9201 100.384,37.9201 103.5,37.5C 105.35,36.3518 106.017,35.0185 105.5,33.5C 107.316,34.8149 108.983,36.3149 110.5,38C 112.112,38.7203 113.612,38.5536 115,37.5C 116.417,38.0779 117.25,39.0779 117.5,40.5 Z"/></g>
<g><path style="opacity:1" fill="#4e90af" d="M 136.5,40.5 C 137.931,40.8807 138.764,41.8807 139,43.5C 139.915,42.6721 140.581,41.6721 141,40.5C 141.31,44.071 140.143,47.071 137.5,49.5C 137.167,49.3333 136.833,49.1667 136.5,49C 137.574,48.2613 138.241,47.2613 138.5,46C 137.68,44.1997 137.014,42.3664 136.5,40.5 Z"/></g>
<g><path style="opacity:1" fill="#6f90a1" d="M 125.5,39.5 C 127.19,39.8564 128.19,40.8564 128.5,42.5C 128.762,43.9778 128.429,45.3112 127.5,46.5C 126.833,44.8333 126.167,43.1667 125.5,41.5C 123.613,47.9952 122.613,47.6619 122.5,40.5C 123.791,40.7373 124.791,40.404 125.5,39.5 Z"/></g>
<g><path style="opacity:1" fill="#4a8baa" d="M 117.5,40.5 C 117.5,41.8333 117.5,43.1667 117.5,44.5C 117.56,45.0431 117.893,45.3764 118.5,45.5C 120.387,39.0048 121.387,39.3381 121.5,46.5C 118.989,46.162 116.655,46.162 114.5,46.5C 113.833,44.8333 113.167,43.1667 112.5,41.5C 111.167,48.1667 109.833,48.1667 108.5,41.5C 107.03,47.9592 106.363,47.6258 106.5,40.5C 110.346,40.7948 114.012,40.7948 117.5,40.5 Z"/></g>
<g><path style="opacity:1" fill="#488cac" d="M 134.5,38.5 C 134.762,41.3104 134.762,43.9771 134.5,46.5C 132.931,45.286 132.098,43.6193 132,41.5C 131.667,43.1667 131.333,44.8333 131,46.5C 130.185,43.8018 130.685,41.4685 132.5,39.5C 132.842,38.6618 133.508,38.3284 134.5,38.5 Z"/></g>
<g><path style="opacity:1" fill="#84b8cb" d="M 82.5,52.5 C 84.3379,51.3217 86.0045,51.655 87.5,53.5C 85.0675,57.687 83.4008,57.3536 82.5,52.5 Z"/></g>
<g><path style="opacity:1" fill="#a4d4e3" d="M 120.5,54.5 C 120.5,56.8333 120.5,59.1667 120.5,61.5C 119.167,61.5 117.833,61.5 116.5,61.5C 116.662,59.4727 116.495,57.4727 116,55.5C 115.033,56.6776 114.533,58.011 114.5,59.5C 113.818,58.7573 113.151,58.0906 112.5,57.5C 112.158,56.6618 111.492,56.3284 110.5,56.5C 110.833,55.8333 111.167,55.1667 111.5,54.5C 113.5,54.5 115.5,54.5 117.5,54.5C 117.5,53.5 117.5,52.5 117.5,51.5C 118.5,51.5 119.5,51.5 120.5,51.5C 120.5,52.5 120.5,53.5 120.5,54.5 Z"/></g>
<g><path style="opacity:1" fill="#5890a7" d="M 104.5,54.5 C 105.552,54.3505 106.552,54.5172 107.5,55C 105.771,62.3629 104.771,62.1962 104.5,54.5 Z"/></g>
<g><path style="opacity:1" fill="#3d7e9e" d="M 82.5,52.5 C 83.4008,57.3536 85.0675,57.687 87.5,53.5C 86.3751,55.8205 86.2084,58.1538 87,60.5C 85.3325,56.7628 83.9991,56.7628 83,60.5C 82.5026,57.854 82.3359,55.1873 82.5,52.5 Z"/></g>
<g><path style="opacity:1" fill="#4f93b5" d="M 135.5,52.5 C 136.5,52.5 137.5,52.5 138.5,52.5C 138.756,54.9372 139.423,57.2706 140.5,59.5C 140.167,59.8333 139.833,60.1667 139.5,60.5C 137.833,57.8333 136.167,57.8333 134.5,60.5C 134.167,60 133.833,59.5 133.5,59C 134.609,56.9534 135.276,54.7867 135.5,52.5 Z"/></g>
<g><path style="opacity:1" fill="#68a4b9" d="M 99.5,54.5 C 102.5,54.1667 103.833,55.5 103.5,58.5C 99.6893,58.5958 99.6893,59.2624 103.5,60.5C 102.277,61.6139 100.944,61.7805 99.5,61C 98.232,58.8368 98.232,56.6702 99.5,54.5 Z"/></g>
<g><path style="opacity:1" fill="#5699ba" d="M 125.5,60.5 C 124.094,60.0269 123.427,59.0269 123.5,57.5C 124.302,56.0484 124.802,54.3817 125,52.5C 129.574,51.3072 130.407,52.6406 127.5,56.5C 128.274,57.7112 129.107,57.7112 130,56.5C 130.49,57.7932 130.657,59.1266 130.5,60.5C 128.408,60.4386 126.908,59.4386 126,57.5C 125.517,58.448 125.351,59.448 125.5,60.5 Z"/></g>
<g><path style="opacity:1" fill="#d7eff4" d="M 191.5,54.5 C 190.167,56.8333 190.167,59.1667 191.5,61.5C 189.833,61.5 188.167,61.5 186.5,61.5C 185.395,59.2869 185.395,57.1203 186.5,55C 185.953,54.0754 185.287,53.2421 184.5,52.5C 183.259,55.537 183.259,58.537 184.5,61.5C 175.765,62.348 167.431,62.348 159.5,61.5C 163.976,61.1997 165.31,59.0331 163.5,55C 162.552,54.5172 161.552,54.3505 160.5,54.5C 160.47,53.5028 160.97,52.8361 162,52.5C 163.303,52.9783 164.469,53.645 165.5,54.5C 165.771,62.1962 166.771,62.3629 168.5,55C 167.906,54.5357 167.239,54.369 166.5,54.5C 167.671,53.6554 169.005,52.9887 170.5,52.5C 170.5,55.1667 170.5,57.8333 170.5,60.5C 172.527,60.6621 174.527,60.4955 176.5,60C 175.833,59.6667 175.167,59.3333 174.5,59C 175.293,57.9148 175.96,56.7481 176.5,55.5C 174.345,54.9986 172.678,53.9986 171.5,52.5C 172.742,53.0434 174.075,53.3767 175.5,53.5C 180.088,52.2681 184.255,50.2681 188,47.5C 189.832,49.5478 190.999,51.8811 191.5,54.5 Z"/></g>
<g><path style="opacity:1" fill="#518ca7" d="M 165.5,54.5 C 165.833,54.5 166.167,54.5 166.5,54.5C 167.239,54.369 167.906,54.5357 168.5,55C 166.771,62.3629 165.771,62.1962 165.5,54.5 Z"/></g>
<g><path style="opacity:1" fill="#639ab2" d="M 178.5,55.5 C 179.542,54.2089 180.708,54.2089 182,55.5C 182.495,57.4727 182.662,59.4727 182.5,61.5C 178.862,62.2634 177.362,60.9301 178,57.5C 180.665,56.526 180.831,55.8593 178.5,55.5 Z"/></g>
<g><path style="opacity:1" fill="#6099b3" d="M 93.5,61.5 C 91.901,61.7678 90.5676,61.4345 89.5,60.5C 87.5971,54.8958 89.0971,53.5625 94,56.5C 94.2649,54.3485 95.2649,52.6819 97,51.5C 97.5,51.6667 98,51.8333 98.5,52C 96.5188,52.6054 96.1854,53.6054 97.5,55C 96.8971,56.8254 96.2304,58.6587 95.5,60.5C 94.1456,58.8164 92.4789,58.3164 90.5,59C 92.1193,59.2355 93.1193,60.0689 93.5,61.5 Z"/></g>
<g><path style="opacity:1" fill="#406978" d="M 111.5,54.5 C 111.167,55.1667 110.833,55.8333 110.5,56.5C 109.71,57.6085 109.21,58.9419 109,60.5C 108.505,58.5273 108.338,56.5273 108.5,54.5C 109.5,54.5 110.5,54.5 111.5,54.5 Z"/></g>
<g><path style="opacity:1" fill="#4d899e" d="M 153.5,52.5 C 154.183,54.1765 155.517,54.8432 157.5,54.5C 157.387,61.6619 156.387,61.9952 154.5,55.5C 153.83,57.2914 153.163,58.9581 152.5,60.5C 152.194,57.6146 152.527,54.9479 153.5,52.5 Z"/></g>
<g><path style="opacity:1" fill="#6191ab" d="M 160.5,54.5 C 161.552,54.3505 162.552,54.5172 163.5,55C 165.31,59.0331 163.976,61.1997 159.5,61.5C 159.179,60.1825 158.846,58.8492 158.5,57.5C 158.453,55.9623 159.12,54.9623 160.5,54.5 Z"/></g>
<g><path style="opacity:1" fill="#d3f9fa" d="M 160.5,55.5 C 163.861,56.2032 164.194,57.5365 161.5,59.5C 160.571,58.3112 160.238,56.9778 160.5,55.5 Z"/></g>
<g><path style="opacity:1" fill="#4d8ba8" d="M 170.5,52.5 C 170.833,52.5 171.167,52.5 171.5,52.5C 172.678,53.9986 174.345,54.9986 176.5,55.5C 175.96,56.7481 175.293,57.9148 174.5,59C 175.167,59.3333 175.833,59.6667 176.5,60C 174.527,60.4955 172.527,60.6621 170.5,60.5C 170.5,57.8333 170.5,55.1667 170.5,52.5 Z"/></g>
<g><path style="opacity:1" fill="#caf4f6" d="M 171.5,55.5 C 175.157,55.974 175.324,57.3074 172,59.5C 171.51,58.2068 171.343,56.8734 171.5,55.5 Z"/></g>
<g><path style="opacity:1" fill="#5d9cbf" d="M 186.5,61.5 C 185.833,61.5 185.167,61.5 184.5,61.5C 183.259,58.537 183.259,55.537 184.5,52.5C 185.287,53.2421 185.953,54.0754 186.5,55C 185.395,57.1203 185.395,59.2869 186.5,61.5 Z"/></g>
<g><path style="opacity:1" fill="#5b8aa3" d="M 148.5,53.5 C 149.473,53.9867 150.473,54.4867 151.5,55C 150.167,62.3333 148.833,62.3333 147.5,55C 148.056,54.6174 148.389,54.1174 148.5,53.5 Z"/></g>
<g><path style="opacity:1" fill="#184571" d="M 45.5,10.5 C 49.3359,12.5836 53.0026,14.917 56.5,17.5C 57.7138,20.9302 59.2138,24.2635 61,27.5C 61.898,33.6639 61.398,39.6639 59.5,45.5C 57.9998,49.173 55.9998,52.5063 53.5,55.5C 46.9996,60.3881 39.6663,62.5547 31.5,62C 28.7206,61.439 26.054,60.6056 23.5,59.5C 20.4604,58.3197 17.7937,56.653 15.5,54.5C 9.04287,45.3292 7.3762,35.3292 10.5,24.5C 12.3782,21.7554 14.0449,18.7554 15.5,15.5C 15.9569,14.7025 16.6236,14.3691 17.5,14.5C 21.4333,12.5752 25.4333,10.7419 29.5,9C 34.9631,8.24638 40.2965,8.74638 45.5,10.5 Z"/></g>
<g><path style="opacity:1" fill="#e6edf1" d="M 28.5,10.5 C 42.8543,8.69349 53.0209,14.3602 59,27.5C 61.3297,49.4998 51.4964,60.3331 29.5,60C 15.1016,54.9157 8.93492,44.749 11,29.5C 13.9284,20.4081 19.7617,14.0747 28.5,10.5 Z"/></g>
<g><path style="opacity:1" fill="#43505e" d="M 36.5,54.5 C 35.6043,55.5063 34.9377,55.5063 34.5,54.5C 35.1667,49.1667 35.8333,49.1667 36.5,54.5 Z"/></g>
<g><path style="opacity:1" fill="#2e81ae" d="M 32.5,53.5 C 31.3054,53.1344 30.6387,52.301 30.5,51C 31.3146,49.3566 32.3146,47.8566 33.5,46.5C 35.1703,46.2488 36.6703,45.5822 38,44.5C 37.3829,42.9052 37.7163,41.5719 39,40.5C 40.7184,42.2021 40.885,44.0355 39.5,46C 37.3359,46.9143 35.3359,48.081 33.5,49.5C 32.9117,51.0116 32.5784,52.3449 32.5,53.5 Z"/></g>
<g><path style="opacity:1" fill="#949aa5" d="M 21.5,40.5 C 22.5,40.5 23.5,40.5 24.5,40.5C 25.2309,42.5988 25.2309,44.5988 24.5,46.5C 23.1667,46.1667 21.8333,45.8333 20.5,45.5C 21.3094,43.9291 21.6427,42.2624 21.5,40.5 Z"/></g>
<g><path style="opacity:1" fill="#929aa5" d="M 15.5,40.5 C 16.9311,40.8807 17.7645,41.8807 18,43.5C 18.2492,42.376 18.7492,41.376 19.5,40.5C 19.8333,40.6667 20.1667,40.8333 20.5,41C 18.076,48.4094 16.4094,48.2427 15.5,40.5 Z"/></g>
<g><path style="opacity:1" fill="#c9dee8" d="M 41.5,33.5 C 42.3256,36.0144 42.4922,38.681 42,41.5C 46.2513,40.1634 47.7513,40.1634 46.5,41.5C 46.5,42.5 46.5,43.5 46.5,44.5C 48.8244,44.3385 50.4911,43.1718 51.5,41C 52.635,40.2506 53.635,40.4173 54.5,41.5C 53.675,42.3857 52.675,42.719 51.5,42.5C 51.5,43.5 51.5,44.5 51.5,45.5C 52.552,45.3505 53.552,45.5172 54.5,46C 52.8876,46.7203 51.3876,46.5536 50,45.5C 49.1502,47.01 48.3169,48.51 47.5,50C 48.1868,51.1618 48.3534,52.3284 48,53.5C 47,50.8333 46,48.1667 45,45.5C 41.7393,47.6008 39.906,50.6008 39.5,54.5C 38.5754,55.5624 37.5754,55.5624 36.5,54.5C 35.8333,49.1667 35.1667,49.1667 34.5,54.5C 33.5084,54.6716 32.8417,54.3382 32.5,53.5C 32.5784,52.3449 32.9117,51.0116 33.5,49.5C 35.3359,48.081 37.3359,46.9143 39.5,46C 40.885,44.0355 40.7184,42.2021 39,40.5C 37.7163,41.5719 37.3829,42.9052 38,44.5C 36.6703,45.5822 35.1703,46.2488 33.5,46.5C 32.9717,45.1526 32.805,43.8193 33,42.5C 35.7623,41.0194 38.429,39.3527 41,37.5C 41.49,36.2068 41.6567,34.8734 41.5,33.5 Z"/></g>
<g><path style="opacity:1" fill="#315570" d="M 36.5,49.5 C 37.209,48.596 38.209,48.2627 39.5,48.5C 38.9849,54.4134 37.9849,54.7467 36.5,49.5 Z"/></g>
<g><path style="opacity:1" fill="#58575c" d="M 34.5,42.5 C 36.337,42.6395 36.6704,43.3061 35.5,44.5C 34.7025,44.0431 34.3691,43.3764 34.5,42.5 Z"/></g>
<g><path style="opacity:1" fill="#1e446c" d="M 41.5,33.5 C 41.6567,34.8734 41.49,36.2068 41,37.5C 38.429,39.3527 35.7623,41.0194 33,42.5C 32.805,43.8193 32.9717,45.1526 33.5,46.5C 29.0493,45.8149 28.3827,43.8149 31.5,40.5C 33.8895,39.554 36.0562,38.2206 38,36.5C 37.9536,34.6874 38.1203,33.0207 38.5,31.5C 39.5178,32.1925 40.5178,32.8592 41.5,33.5 Z"/></g>
<g><path style="opacity:1" fill="#b2d5e6" d="M 40.5,29.5 C 40.7822,30.7777 41.4489,31.7777 42.5,32.5C 41.8333,32.5 41.5,32.8333 41.5,33.5C 40.5178,32.8592 39.5178,32.1925 38.5,31.5C 38.1203,33.0207 37.9536,34.6874 38,36.5C 36.0562,38.2206 33.8895,39.554 31.5,40.5C 31.1667,39.8333 30.8333,39.1667 30.5,38.5C 31.552,38.6495 32.552,38.4828 33.5,38C 31.4732,36.6043 31.1398,34.9376 32.5,33C 35.0711,31.5462 37.7378,30.3795 40.5,29.5 Z"/></g>
<g><path style="opacity:1" fill="#313f45" d="M 34.5,33.5 C 36.9701,34.3603 37.1368,35.6936 35,37.5C 34.51,36.2068 34.3433,34.8734 34.5,33.5 Z"/></g>
<g><path style="opacity:1" fill="#2f86b7" d="M 40.5,29.5 C 37.7378,30.3795 35.0711,31.5462 32.5,33C 31.1398,34.9376 31.4732,36.6043 33.5,38C 32.552,38.4828 31.552,38.6495 30.5,38.5C 27.9469,36.2955 27.9469,33.9621 30.5,31.5C 33.0041,30.4161 35.3374,29.0828 37.5,27.5C 39.2517,27.5824 40.2517,26.7491 40.5,25C 37.6955,21.9423 38.3622,20.6089 42.5,21C 45.0333,24.4702 44.3666,27.3036 40.5,29.5 Z"/></g>
<g><path style="opacity:1" fill="#a7cee4" d="M 24.5,22.5 C 25.1667,22.5 25.8333,22.5 26.5,22.5C 26.1857,26.1935 27.8523,28.5268 31.5,29.5C 32.2975,29.0431 32.6309,28.3764 32.5,27.5C 33.4345,26.4324 33.7678,25.099 33.5,23.5C 34.0221,25.2191 35.0221,26.5525 36.5,27.5C 36.8333,27.5 37.1667,27.5 37.5,27.5C 35.3374,29.0828 33.0041,30.4161 30.5,31.5C 30.1667,31.5 29.8333,31.5 29.5,31.5C 28.2583,29.7499 26.7583,28.0832 25,26.5C 24.51,25.2068 24.3433,23.8734 24.5,22.5 Z"/></g>
<g><path style="opacity:1" fill="#1a2f4e" d="M 42.5,32.5 C 41.4489,31.7777 40.7822,30.7777 40.5,29.5C 44.3163,28.9103 45.9829,26.5769 45.5,22.5C 49.7127,22.9433 53.0461,24.9433 55.5,28.5C 51.4097,30.6413 47.0764,31.9747 42.5,32.5 Z"/></g>
<g><path style="opacity:1" fill="#162d4d" d="M 24.5,22.5 C 24.3433,23.8734 24.51,25.2068 25,26.5C 26.7583,28.0832 28.2583,29.7499 29.5,31.5C 24.3426,32.2987 19.3426,31.4654 14.5,29C 16.8333,26.6667 19.1667,24.3333 21.5,22C 22.7494,21.2599 23.7494,21.4265 24.5,22.5 Z"/></g>
<g><path style="opacity:1" fill="#153f6c" d="M 32.5,27.5 C 32.6309,28.3764 32.2975,29.0431 31.5,29.5C 27.8523,28.5268 26.1857,26.1935 26.5,22.5C 27.7514,20.439 29.4181,20.1057 31.5,21.5C 28.5454,24.2641 28.8788,26.2641 32.5,27.5 Z"/></g>
<g><path style="opacity:1" fill="#263c51" d="M 36.5,27.5 C 35.0221,26.5525 34.0221,25.2191 33.5,23.5C 33.1159,21.3352 33.7826,19.6685 35.5,18.5C 36.4841,21.4281 36.8174,24.4281 36.5,27.5 Z"/></g>
<g><path style="opacity:1" fill="#659eb9" d="M 116.5,61.5 C 112.56,62.234 111.227,60.9007 112.5,57.5C 113.151,58.0906 113.818,58.7573 114.5,59.5C 114.533,58.011 115.033,56.6776 116,55.5C 116.495,57.4727 116.662,59.4727 116.5,61.5 Z"/></g>
<g><path style="opacity:1" fill="#5f95b2" d="M 141.5,54.5 C 142.999,55.6782 143.999,57.3449 144.5,59.5C 145.298,57.9223 145.798,56.2556 146,54.5C 146.497,56.8098 146.663,59.1432 146.5,61.5C 142.197,61.2648 140.53,58.9315 141.5,54.5 Z"/></g>
<g><path style="opacity:1" fill="#5b97b7" d="M 191.5,54.5 C 192.791,54.2627 193.791,54.596 194.5,55.5C 195.742,57.3888 195.742,59.3888 194.5,61.5C 193.5,61.5 192.5,61.5 191.5,61.5C 190.167,59.1667 190.167,56.8333 191.5,54.5 Z"/></g>
<g><path style="opacity:1" fill="#d1f3f4" d="M 194.5,55.5 C 194.5,56.8333 194.5,58.1667 194.5,59.5C 193.5,59.5 192.5,59.5 191.5,59.5C 191.088,57.0274 192.088,55.6941 194.5,55.5 Z"/></g>
<g><path style="opacity:1" fill="#d4f1f6" d="M 201.5,54.5 C 203.369,56.6353 204.036,59.3019 203.5,62.5C 200.518,62.0371 197.518,61.7038 194.5,61.5C 195.742,59.3888 195.742,57.3888 194.5,55.5C 193.791,54.596 192.791,54.2627 191.5,54.5C 191.62,53.4138 192.287,52.7472 193.5,52.5C 196.349,52.9644 199.016,53.6311 201.5,54.5 Z"/></g>
<g><path style="opacity:1" fill="#3a748d" d="M 201.5,54.5 C 202.511,56.4024 202.678,58.4024 202,60.5C 200.667,53.8333 199.333,53.8333 198,60.5C 197.505,58.5273 197.338,56.5273 197.5,54.5C 198.833,54.5 200.167,54.5 201.5,54.5 Z"/></g>
<g><path style="opacity:1" fill="#2283bf" d="M 53.5,55.5 C 49.0059,62.2178 42.6726,65.5512 34.5,65.5C 34.7852,67.288 34.4519,68.9547 33.5,70.5C 29.6682,67.7497 25.6682,65.2497 21.5,63C 22.8228,62.1841 23.4894,61.0174 23.5,59.5C 26.054,60.6056 28.7206,61.439 31.5,62C 39.6663,62.5547 46.9996,60.3881 53.5,55.5 Z"/></g>
</svg>
