<svg xmlns="http://www.w3.org/2000/svg" width="512" height="512" viewBox="0 0 512 512">
  <rect width="512" height="512" rx="80" fill="#0f172a"/>
  <rect x="100" y="60" width="312" height="370" rx="16" fill="#1e293b" stroke="#334155" stroke-width="3"/>
  <rect x="140" y="100" width="232" height="14" rx="7" fill="#3b82f6"/>
  <rect x="140" y="134" width="180" height="10" rx="5" fill="#475569"/>
  <rect x="140" y="158" width="200" height="10" rx="5" fill="#475569"/>
  <rect x="140" y="182" width="150" height="10" rx="5" fill="#475569"/>
  <rect x="140" y="216" width="232" height="14" rx="7" fill="#22c55e"/>
  <rect x="140" y="250" width="190" height="10" rx="5" fill="#475569"/>
  <rect x="140" y="274" width="170" height="10" rx="5" fill="#475569"/>
  <rect x="140" y="298" width="140" height="10" rx="5" fill="#475569"/>
  <rect x="140" y="332" width="232" height="14" rx="7" fill="#f97316"/>
  <rect x="140" y="366" width="160" height="10" rx="5" fill="#475569"/>
  <rect x="140" y="390" width="130" height="10" rx="5" fill="#475569"/>
  <text x="256" y="475" text-anchor="middle" font-family="system-ui" font-size="36" font-weight="700" fill="#3b82f6">CCA</text>
</svg>
