<svg xmlns="http://www.w3.org/2000/svg" viewBox="0 0 64 64" width="64" height="64">
  <!-- Background -->
  <rect width="64" height="64" fill="#0f172a"/>
  
  <!-- Left leaf (darker olive green/brownish-green) - positioned behind -->
  <path d="M 18 35 
           Q 16 28, 18 20 
           Q 20 15, 24 12 
           Q 28 10, 32 12 
           Q 30 15, 29 20 
           Q 28 25, 29 30 
           Q 28 33, 26 35 
           Q 24 36, 22 36 
           Q 20 36, 18 35 Z" 
        fill="#8B8B4C" 
        stroke="#6B6B3C" 
        stroke-width="0.3"/>
  
  <!-- Left leaf stem -->
  <line x1="22" y1="35" x2="22" y2="40" stroke="#6B6B3C" stroke-width="1.5" stroke-linecap="round"/>
  
  <!-- Left leaf veins -->
  <path d="M 22 35 Q 24 30, 26 25" stroke="#6B6B3C" stroke-width="0.4" fill="none"/>
  <path d="M 22 35 Q 23 32, 24 28" stroke="#6B6B3C" stroke-width="0.4" fill="none"/>
  <path d="M 22 35 Q 21 32, 20 28" stroke="#6B6B3C" stroke-width="0.4" fill="none"/>
  
  <!-- Right leaf (lighter lime green/yellowish-green) - positioned in front -->
  <path d="M 46 35 
           Q 48 28, 46 20 
           Q 44 15, 40 12 
           Q 36 10, 32 12 
           Q 34 15, 35 20 
           Q 36 25, 35 30 
           Q 36 33, 38 35 
           Q 40 36, 42 36 
           Q 44 36, 46 35 Z" 
        fill="#B8D07A" 
        stroke="#98C05A" 
        stroke-width="0.3"/>
  
  <!-- Right leaf stem -->
  <line x1="42" y1="35" x2="42" y2="40" stroke="#98C05A" stroke-width="1.5" stroke-linecap="round"/>
  
  <!-- Right leaf veins -->
  <path d="M 42 35 Q 40 30, 38 25" stroke="#98C05A" stroke-width="0.4" fill="none"/>
  <path d="M 42 35 Q 41 32, 40 28" stroke="#98C05A" stroke-width="0.4" fill="none"/>
  <path d="M 42 35 Q 43 32, 44 28" stroke="#98C05A" stroke-width="0.4" fill="none"/>
  
  <!-- Overlap area for depth (where right leaf covers left) -->
  <path d="M 32 12 
           Q 34 15, 35 20 
           Q 36 25, 35 30 
           Q 36 33, 34 35 
           Q 32 36, 30 35 
           Q 28 33, 29 30 
           Q 28 25, 29 20 
           Q 30 15, 32 12 Z" 
        fill="#9BA86A" 
        opacity="0.5"/>
</svg>